<svg xmlns="http://www.w3.org/2000/svg" xmlns:xlink="http://www.w3.org/1999/xlink" width="57.374" height="27.964" viewBox="0 0 57.374 27.964">
  <defs>
    <linearGradient id="linear-gradient" x1="0.5" y1="1.007" x2="0.5" y2="-0.022" gradientUnits="objectBoundingBox">
      <stop offset="0" stop-color="#c2cedb"/>
      <stop offset="1" stop-color="#5088ab"/>
    </linearGradient>
    <linearGradient id="linear-gradient-2" x1="0.5" y1="0.977" x2="0.5" y2="-0.391" gradientUnits="objectBoundingBox">
      <stop offset="0" stop-color="#cdd6df"/>
      <stop offset="1" stop-color="#518cae"/>
    </linearGradient>
    <linearGradient id="linear-gradient-3" x1="0.5" y1="1.007" x2="0.5" y2="-0.023" gradientUnits="objectBoundingBox">
      <stop offset="0" stop-color="#c3d4e6"/>
      <stop offset="1" stop-color="#6597b7"/>
    </linearGradient>
  </defs>
  <g id="Grupo_5" data-name="Grupo 5" transform="translate(0 0)">
    <path id="Caminho_6" data-name="Caminho 6" d="M239.606,428.035H230.74l1.305-6.225H277.6l-1.305,6.225H247.345l-4.5,21.085h-7.739Z" transform="translate(-230.74 -421.81)" fill="url(#linear-gradient)"/>
    <path id="Caminho_7" data-name="Caminho 7" d="M301.653,446.59a10.629,10.629,0,0,1,3.669.634,9.476,9.476,0,0,1,3.015,1.762,8.411,8.411,0,0,1,2.048,2.722,8.047,8.047,0,0,1,.766,3.521,11.687,11.687,0,0,1-.943,4.708,11.373,11.373,0,0,1-2.633,3.766,12.377,12.377,0,0,1-4.027,2.519,13.784,13.784,0,0,1-5.086.921,10.725,10.725,0,0,1-3.712-.634,9.421,9.421,0,0,1-3.015-1.762,8.41,8.41,0,0,1-2.048-2.722,8.047,8.047,0,0,1-.766-3.521,10.889,10.889,0,0,1,1.036-4.75,12.19,12.19,0,0,1,2.768-3.766,12.689,12.689,0,0,1,4.05-2.5A13.374,13.374,0,0,1,301.653,446.59Zm-2.252,14.7a4.345,4.345,0,0,0,1.779-.389,4.9,4.9,0,0,0,1.552-1.086,5.429,5.429,0,0,0,1.082-1.639,5.234,5.234,0,0,0,.4-2.088,3.9,3.9,0,0,0-.878-2.6,3.243,3.243,0,0,0-2.633-1.044,4.334,4.334,0,0,0-1.779.389,4.948,4.948,0,0,0-1.552,1.086,5.451,5.451,0,0,0-1.082,1.636,5.244,5.244,0,0,0-.4,2.088,3.9,3.9,0,0,0,.878,2.6A3.244,3.244,0,0,0,299.4,461.289Z" transform="translate(-269.793 -439.178)" fill="url(#linear-gradient-2)"/>
    <path id="Caminho_8" data-name="Caminho 8" d="M368.7,448.78h7.292l-4.1,19.245H364.61Z" transform="translate(-320.6 -440.713)" fill="url(#linear-gradient-3)"/>
    <path id="Caminho_9" data-name="Caminho 9" d="M378.29,421.82h7.92l-1.41,6.018h-7.92Z" transform="translate(-328.836 -421.817)" fill="#fcae12"/>
  </g>
</svg>
